<mxfile host="drawio-plugin" modified="2021-12-05T14:21:53.849Z" agent="5.0 (Macintosh; Intel Mac OS X 12_0_1) AppleWebKit/537.36 (KHTML, like Gecko) Chrome/89.0.4389.114 Safari/537.36" etag="medKTXkojD41w2yOgyPW" version="14.7.4" type="embed"><diagram id="23iRSUPoRavnBvh4doch" name="Page-1"><mxGraphModel dx="1055" dy="837" grid="1" gridSize="10" guides="1" tooltips="1" connect="1" arrows="1" fold="1" page="1" pageScale="1" pageWidth="827" pageHeight="1169" math="0" shadow="0"><root><mxCell id="0"/><mxCell id="1" parent="0"/><mxCell id="6" style="rounded=0;orthogonalLoop=1;jettySize=auto;html=1;entryX=0;entryY=0.5;entryDx=0;entryDy=0;endArrow=none;endFill=0;" parent="1" source="2" target="3" edge="1"><mxGeometry relative="1" as="geometry"/></mxCell><mxCell id="2" value="応募者" style="shape=umlActor;verticalLabelPosition=bottom;verticalAlign=top;html=1;outlineConnect=0;" parent="1" vertex="1"><mxGeometry x="130" y="240" width="30" height="60" as="geometry"/></mxCell><mxCell id="15" style="edgeStyle=none;rounded=0;orthogonalLoop=1;jettySize=auto;html=1;endArrow=none;endFill=0;" parent="1" source="3" target="12" edge="1"><mxGeometry relative="1" as="geometry"/></mxCell><mxCell id="3" value="応募フォーム" style="rounded=1;whiteSpace=wrap;html=1;" parent="1" vertex="1"><mxGeometry x="290" y="250" width="120" height="60" as="geometry"/></mxCell><mxCell id="19" style="edgeStyle=none;rounded=0;orthogonalLoop=1;jettySize=auto;html=1;entryX=1;entryY=0.5;entryDx=0;entryDy=0;endArrow=none;endFill=0;" parent="1" source="12" target="18" edge="1"><mxGeometry relative="1" as="geometry"/></mxCell><mxCell id="12" value="採用担当者" style="shape=umlActor;verticalLabelPosition=bottom;verticalAlign=top;html=1;outlineConnect=0;" parent="1" vertex="1"><mxGeometry x="540" y="310" width="30" height="60" as="geometry"/></mxCell><mxCell id="17" style="edgeStyle=none;rounded=0;orthogonalLoop=1;jettySize=auto;html=1;entryX=0.5;entryY=0;entryDx=0;entryDy=0;entryPerimeter=0;endArrow=none;endFill=0;dashed=1;" parent="1" source="16" target="2" edge="1"><mxGeometry relative="1" as="geometry"/></mxCell><mxCell id="16" value="・採用ページからリンクで飛んでフォームで応募する" style="rounded=0;whiteSpace=wrap;html=1;" parent="1" vertex="1"><mxGeometry x="50" y="120" width="320" height="60" as="geometry"/></mxCell><mxCell id="23" style="edgeStyle=none;rounded=0;orthogonalLoop=1;jettySize=auto;html=1;endArrow=classic;endFill=1;" parent="1" source="18" target="20" edge="1"><mxGeometry relative="1" as="geometry"/></mxCell><mxCell id="18" value="採用管理システム" style="rounded=1;whiteSpace=wrap;html=1;" parent="1" vertex="1"><mxGeometry x="290" y="380" width="120" height="60" as="geometry"/></mxCell><mxCell id="20" value="メール送信サービス" style="rounded=1;whiteSpace=wrap;html=1;" parent="1" vertex="1"><mxGeometry x="290" y="540" width="120" height="60" as="geometry"/></mxCell><mxCell id="22" style="edgeStyle=none;rounded=0;orthogonalLoop=1;jettySize=auto;html=1;entryX=1;entryY=0.5;entryDx=0;entryDy=0;endArrow=none;endFill=0;dashed=1;" parent="1" source="21" target="20" edge="1"><mxGeometry relative="1" as="geometry"/></mxCell><mxCell id="21" value="&lt;span&gt;メール送信は外部のマネージドサービスを利用する&lt;/span&gt;" style="rounded=0;whiteSpace=wrap;html=1;align=left;" parent="1" vertex="1"><mxGeometry x="510" y="540" width="180" height="60" as="geometry"/></mxCell><mxCell id="27" style="edgeStyle=none;rounded=0;orthogonalLoop=1;jettySize=auto;html=1;entryX=0.461;entryY=-0.13;entryDx=0;entryDy=0;entryPerimeter=0;endArrow=none;endFill=0;dashed=1;" parent="1" source="24" target="26" edge="1"><mxGeometry relative="1" as="geometry"/></mxCell><mxCell id="24" value="" style="rounded=0;whiteSpace=wrap;html=1;fillColor=none;dashed=1;" parent="1" vertex="1"><mxGeometry x="250" y="360" width="210" height="100" as="geometry"/></mxCell><mxCell id="26" value="今回開発するシステム - ①" style="text;html=1;strokeColor=none;fillColor=none;align=center;verticalAlign=middle;whiteSpace=wrap;rounded=0;" parent="1" vertex="1"><mxGeometry x="65" y="490" width="160" height="20" as="geometry"/></mxCell></root></mxGraphModel></diagram></mxfile>